<svg xmlns="http://www.w3.org/2000/svg" width="160" height="96" viewBox="0 0 160 96">
  <rect width="160" height="96" fill="#fff"/>
  <g transform="translate(8,8)">
    <!-- Checkered: alternate red/blue per bench -->
    <g>
      <!-- row 1 -->
      <rect x="0" y="0" width="36" height="22" rx="3" fill="#ef4444"/>
      <rect x="44" y="0" width="36" height="22" rx="3" fill="#3b82f6"/>
      <rect x="88" y="0" width="36" height="22" rx="3" fill="#ef4444"/>
      <rect x="132" y="0" width="36" height="22" rx="3" fill="#3b82f6"/>
      <!-- row 2 -->
      <rect x="0" y="30" width="36" height="22" rx="3" fill="#3b82f6"/>
      <rect x="44" y="30" width="36" height="22" rx="3" fill="#ef4444"/>
      <rect x="88" y="30" width="36" height="22" rx="3" fill="#3b82f6"/>
      <rect x="132" y="30" width="36" height="22" rx="3" fill="#ef4444"/>
      <!-- row 3 -->
      <rect x="0" y="60" width="36" height="22" rx="3" fill="#ef4444"/>
      <rect x="44" y="60" width="36" height="22" rx="3" fill="#3b82f6"/>
      <rect x="88" y="60" width="36" height="22" rx="3" fill="#ef4444"/>
      <rect x="132" y="60" width="36" height="22" rx="3" fill="#3b82f6"/>
    </g>
  </g>
</svg>
